P3
1 2
255
255 204 153 
255 255 153 
